<svg width="32" height="32" viewBox="0 0 32 32" fill="none" xmlns="http://www.w3.org/2000/svg">
  <!-- Main body -->
  <path d="M16 2 L20 12 L18 20 L14 20 L12 12 Z" fill="#00FFD1" stroke="#00FFFF" stroke-width="1"/>
  
  <!-- Wings -->
  <path d="M12 12 L6 16 L8 18 L12 16 Z" fill="#00FFD1" stroke="#00FFFF" stroke-width="1"/>
  <path d="M20 12 L26 16 L24 18 L20 16 Z" fill="#00FFD1" stroke="#00FFFF" stroke-width="1"/>
  
  <!-- Cockpit -->
  <circle cx="16" cy="10" r="2" fill="#06080A" stroke="#00FFFF" stroke-width="1"/>
  
  <!-- Engine glow -->
  <ellipse cx="16" cy="21" rx="3" ry="4" fill="#00FFFF" opacity="0.6"/>
  <ellipse cx="16" cy="23" rx="2" ry="3" fill="#00FFD1" opacity="0.8"/>
  
  <!-- Exhaust -->
  <path d="M14 20 L13 26 L16 24 L19 26 L18 20" fill="#00FFD1" opacity="0.4"/>
  
  <!-- Detail lines -->
  <line x1="16" y1="6" x2="16" y2="12" stroke="#00FFFF" stroke-width="0.5" opacity="0.6"/>
  <line x1="14" y1="14" x2="18" y2="14" stroke="#00FFFF" stroke-width="0.5" opacity="0.6"/>
  
  <!-- Glow effect -->
  <circle cx="16" cy="16" r="14" fill="none" stroke="#00FFD1" stroke-width="0.5" opacity="0.2"/>
</svg>
